<svg width="64" height="44" viewBox="0 0 64 44" fill="none" xmlns="http://www.w3.org/2000/svg">
<path d="M1 23C1.26522 23 1.51957 22.8946 1.70711 22.7071C1.89464 22.5196 2 22.2652 2 22V4C2 3.46957 2.21071 2.96086 2.58579 2.58579C2.96086 2.21071 3.46957 2 4 2H48C48.5304 2 49.0391 2.21071 49.4142 2.58579C49.7893 2.96086 50 3.46957 50 4C50 4.26522 50.1054 4.51957 50.2929 4.70711C50.4804 4.89464 50.7348 5 51 5C51.2652 5 51.5196 4.89464 51.7071 4.70711C51.8946 4.51957 52 4.26522 52 4C52 2.93913 51.5786 1.92172 50.8284 1.17157C50.0783 0.421427 49.0609 0 48 0H4C2.93913 0 1.92172 0.421427 1.17157 1.17157C0.421427 1.92172 0 2.93913 0 4L0 22C0 22.2652 0.105357 22.5196 0.292893 22.7071C0.48043 22.8946 0.734784 23 1 23Z" fill="url(#paint0_linear_878_42)"/>
<path d="M19.419 39H16.5C15.837 39 15.2011 39.2634 14.7322 39.7322C14.2634 40.2011 14 40.837 14 41.5C14 42.163 14.2634 42.7989 14.7322 43.2678C15.2011 43.7366 15.837 44 16.5 44H28.35C28.6152 44 28.8696 43.8946 29.0571 43.7071C29.2446 43.5196 29.35 43.2652 29.35 43C29.35 42.7348 29.2446 42.4804 29.0571 42.2929C28.8696 42.1054 28.6152 42 28.35 42H16.5C16.3674 42 16.2402 41.9473 16.1464 41.8536C16.0527 41.7598 16 41.6326 16 41.5C16 41.3674 16.0527 41.2402 16.1464 41.1464C16.2402 41.0527 16.3674 41 16.5 41H28C28.2652 41 28.5196 40.8946 28.7071 40.7071C28.8946 40.5196 29 40.2652 29 40C29 39.7348 28.8946 39.4804 28.7071 39.2929C28.5196 39.1054 28.2652 39 28 39H21.579C22.009 37.7013 22.009 36.2987 21.579 35H28C28.2652 35 28.5196 34.8946 28.7071 34.7071C28.8946 34.5196 29 34.2652 29 34C29 33.7348 28.8946 33.4804 28.7071 33.2929C28.5196 33.1054 28.2652 33 28 33H4C3.46957 33 2.96086 32.7893 2.58579 32.4142C2.21071 32.0391 2 31.5304 2 31V27H28C28.2652 27 28.5196 26.8946 28.7071 26.7071C28.8946 26.5196 29 26.2652 29 26C29 25.7348 28.8946 25.4804 28.7071 25.2929C28.5196 25.1054 28.2652 25 28 25H1C0.734784 25 0.48043 25.1054 0.292893 25.2929C0.105357 25.4804 0 25.7348 0 26L0 31C0 32.0609 0.421427 33.0783 1.17157 33.8284C1.92172 34.5786 2.93913 35 4 35H19.419C19.7367 35.6188 19.9024 36.3044 19.9024 37C19.9024 37.6956 19.7367 38.3812 19.419 39Z" fill="url(#paint1_linear_878_42)"/>
<path d="M28 29H24C23.7348 29 23.4804 29.1054 23.2929 29.2929C23.1054 29.4804 23 29.7348 23 30C23 30.2652 23.1054 30.5196 23.2929 30.7071C23.4804 30.8946 23.7348 31 24 31H28C28.2652 31 28.5196 30.8946 28.7071 30.7071C28.8946 30.5196 29 30.2652 29 30C29 29.7348 28.8946 29.4804 28.7071 29.2929C28.5196 29.1054 28.2652 29 28 29Z" fill="url(#paint2_linear_878_42)"/>
<path d="M53 7H34C33.2051 7.00237 32.4434 7.31921 31.8813 7.8813C31.3192 8.4434 31.0024 9.20508 31 10V12C31 12.2652 31.1054 12.5196 31.2929 12.7071C31.4804 12.8946 31.7348 13 32 13H54V15C54 15.2652 54.1054 15.5196 54.2929 15.7071C54.4804 15.8946 54.7348 16 55 16C55.2652 16 55.5196 15.8946 55.7071 15.7071C55.8946 15.5196 56 15.2652 56 15V10C55.9976 9.20508 55.6808 8.4434 55.1187 7.8813C54.5566 7.31921 53.7949 7.00237 53 7ZM54 11H33V10C33 9.73478 33.1054 9.48043 33.2929 9.29289C33.4804 9.10536 33.7348 9 34 9H53C53.2652 9 53.5196 9.10536 53.7071 9.29289C53.8946 9.48043 54 9.73478 54 10V11Z" fill="url(#paint3_linear_878_42)"/>
<path d="M32 15C31.7348 15 31.4804 15.1054 31.2929 15.2929C31.1054 15.4804 31 15.7348 31 16V41C31 41.7956 31.3161 42.5587 31.8787 43.1213C32.4413 43.6839 33.2044 44 34 44H45.35C45.6152 44 45.8696 43.8946 46.0571 43.7071C46.2446 43.5196 46.35 43.2652 46.35 43C46.35 42.7348 46.2446 42.4804 46.0571 42.2929C45.8696 42.1054 45.6152 42 45.35 42H34C33.7348 42 33.4804 41.8946 33.2929 41.7071C33.1054 41.5196 33 41.2652 33 41V36H45C45.2652 36 45.5196 35.8946 45.7071 35.7071C45.8946 35.5196 46 35.2652 46 35C46 34.7348 45.8946 34.4804 45.7071 34.2929C45.5196 34.1054 45.2652 34 45 34H33V16C33 15.7348 32.8946 15.4804 32.7071 15.2929C32.5196 15.1054 32.2652 15 32 15Z" fill="url(#paint4_linear_878_42)"/>
<path d="M45 38H42C41.7348 38 41.4804 38.1054 41.2929 38.2929C41.1054 38.4804 41 38.7348 41 39C41 39.2652 41.1054 39.5196 41.2929 39.7071C41.4804 39.8946 41.7348 40 42 40H45C45.2652 40 45.5196 39.8946 45.7071 39.7071C45.8946 39.5196 46 39.2652 46 39C46 38.7348 45.8946 38.4804 45.7071 38.2929C45.5196 38.1054 45.2652 38 45 38Z" fill="url(#paint5_linear_878_42)"/>
<path d="M61 18H51C50.2051 18.0024 49.4434 18.3192 48.8813 18.8813C48.3192 19.4434 48.0024 20.2051 48 21V23C48 23.2652 48.1054 23.5196 48.2929 23.7071C48.4804 23.8946 48.7348 24 49 24H62V38H50V27C50 26.7348 49.8946 26.4804 49.7071 26.2929C49.5196 26.1054 49.2652 26 49 26C48.7348 26 48.4804 26.1054 48.2929 26.2929C48.1054 26.4804 48 26.7348 48 27V41C48.0024 41.7949 48.3192 42.5566 48.8813 43.1187C49.4434 43.6808 50.2051 43.9976 51 44H61C61.7949 43.9976 62.5566 43.6808 63.1187 43.1187C63.6808 42.5566 63.9976 41.7949 64 41V21C63.9976 20.2051 63.6808 19.4434 63.1187 18.8813C62.5566 18.3192 61.7949 18.0024 61 18ZM62 41C62 41.2652 61.8946 41.5196 61.7071 41.7071C61.5196 41.8946 61.2652 42 61 42H51C50.7348 42 50.4804 41.8946 50.2929 41.7071C50.1054 41.5196 50 41.2652 50 41V40H62V41ZM62 22H50V21C50 20.7348 50.1054 20.4804 50.2929 20.2929C50.4804 20.1054 50.7348 20 51 20H61C61.2652 20 61.5196 20.1054 61.7071 20.2929C61.8946 20.4804 62 20.7348 62 21V22Z" fill="url(#paint6_linear_878_42)"/>
<defs>
<linearGradient id="paint0_linear_878_42" x1="1.494" y1="-7.291" x2="99.161" y2="70.709" gradientUnits="userSpaceOnUse">
<stop stop-color="#96369F"/>
<stop offset="1" stop-color="#01B3ED"/>
</linearGradient>
<linearGradient id="paint1_linear_878_42" x1="-11.245" y1="8.66" x2="86.422" y2="86.66" gradientUnits="userSpaceOnUse">
<stop stop-color="#96369F"/>
<stop offset="1" stop-color="#01B3ED"/>
</linearGradient>
<linearGradient id="paint2_linear_878_42" x1="-7.146" y1="3.528" x2="90.52" y2="81.528" gradientUnits="userSpaceOnUse">
<stop stop-color="#96369F"/>
<stop offset="1" stop-color="#01B3ED"/>
</linearGradient>
<linearGradient id="paint3_linear_878_42" x1="9.167" y1="-16.899" x2="106.834" y2="61.101" gradientUnits="userSpaceOnUse">
<stop stop-color="#96369F"/>
<stop offset="1" stop-color="#01B3ED"/>
</linearGradient>
<linearGradient id="paint4_linear_878_42" x1="-4.313" y1="-0.0199997" x2="93.354" y2="77.98" gradientUnits="userSpaceOnUse">
<stop stop-color="#96369F"/>
<stop offset="1" stop-color="#01B3ED"/>
</linearGradient>
<linearGradient id="paint5_linear_878_42" x1="-4.72" y1="0.49" x2="92.947" y2="78.49" gradientUnits="userSpaceOnUse">
<stop stop-color="#96369F"/>
<stop offset="1" stop-color="#01B3ED"/>
</linearGradient>
<linearGradient id="paint6_linear_878_42" x1="4.049" y1="-10.49" x2="101.716" y2="67.51" gradientUnits="userSpaceOnUse">
<stop stop-color="#96369F"/>
<stop offset="1" stop-color="#01B3ED"/>
</linearGradient>
</defs>
</svg>
