<svg width="69" height="47" viewBox="0 0 69 47" fill="none" xmlns="http://www.w3.org/2000/svg">
<path d="M1.06818 24.5682C1.35148 24.5682 1.62318 24.4556 1.8235 24.2553C2.02382 24.055 2.13636 23.7833 2.13636 23.5V4.27273C2.13636 3.70613 2.36144 3.16274 2.76209 2.76209C3.16274 2.36144 3.70613 2.13636 4.27273 2.13636H51.2727C51.8393 2.13636 52.3827 2.36144 52.7834 2.76209C53.184 3.16274 53.4091 3.70613 53.4091 4.27273C53.4091 4.55603 53.5216 4.82772 53.722 5.02805C53.9223 5.22837 54.194 5.34091 54.4773 5.34091C54.7606 5.34091 55.0323 5.22837 55.2326 5.02805C55.4329 4.82772 55.5455 4.55603 55.5455 4.27273C55.5455 3.13953 55.0953 2.05274 54.294 1.25145C53.4927 0.450161 52.4059 0 51.2727 0H4.27273C3.13953 0 2.05274 0.450161 1.25145 1.25145C0.450161 2.05274 0 3.13953 0 4.27273L0 23.5C0 23.7833 0.11254 24.055 0.312863 24.2553C0.513186 24.4556 0.784882 24.5682 1.06818 24.5682Z" fill="black"/>
<path d="M20.743 41.6591H17.625C16.9168 41.6591 16.2375 41.9404 15.7367 42.4412C15.2359 42.942 14.9545 43.6213 14.9545 44.3295C14.9545 45.0378 15.2359 45.717 15.7367 46.2178C16.2375 46.7186 16.9168 47 17.625 47H30.283C30.5663 47 30.838 46.8874 31.0383 46.6871C31.2386 46.4868 31.3511 46.2151 31.3511 45.9318C31.3511 45.6485 31.2386 45.3768 31.0383 45.1765C30.838 44.9762 30.5663 44.8636 30.283 44.8636H17.625C17.4834 44.8636 17.3475 44.8073 17.2473 44.7072C17.1472 44.607 17.0909 44.4712 17.0909 44.3295C17.0909 44.1879 17.1472 44.052 17.2473 43.9519C17.3475 43.8517 17.4834 43.7954 17.625 43.7954H29.9091C30.1924 43.7954 30.4641 43.6829 30.6644 43.4826C30.8647 43.2823 30.9773 43.0106 30.9773 42.7273C30.9773 42.444 30.8647 42.1723 30.6644 41.9719C30.4641 41.7716 30.1924 41.6591 29.9091 41.6591H23.0503C23.5096 40.2719 23.5096 38.7736 23.0503 37.3863H29.9091C30.1924 37.3863 30.4641 37.2738 30.6644 37.0735C30.8647 36.8732 30.9773 36.6015 30.9773 36.3182C30.9773 36.0349 30.8647 35.7632 30.6644 35.5628C30.4641 35.3625 30.1924 35.25 29.9091 35.25H4.27273C3.70613 35.25 3.16274 35.0249 2.76209 34.6243C2.36144 34.2236 2.13636 33.6802 2.13636 33.1136V28.8409H29.9091C30.1924 28.8409 30.4641 28.7284 30.6644 28.528C30.8647 28.3277 30.9773 28.056 30.9773 27.7727C30.9773 27.4894 30.8647 27.2177 30.6644 27.0174C30.4641 26.8171 30.1924 26.7045 29.9091 26.7045H1.06818C0.784882 26.7045 0.513186 26.8171 0.312863 27.0174C0.11254 27.2177 0 27.4894 0 27.7727L0 33.1136C0 34.2468 0.450161 35.3336 1.25145 36.1349C2.05274 36.9362 3.13953 37.3863 4.27273 37.3863H20.743C21.0824 38.0473 21.2594 38.7797 21.2594 39.5227C21.2594 40.2657 21.0824 40.9981 20.743 41.6591Z" fill="black"/>
<path d="M29.9091 30.9773H25.6364C25.3531 30.9773 25.0814 31.0898 24.881 31.2902C24.6807 31.4905 24.5682 31.7622 24.5682 32.0455C24.5682 32.3288 24.6807 32.6005 24.881 32.8008C25.0814 33.0011 25.3531 33.1137 25.6364 33.1137H29.9091C30.1924 33.1137 30.4641 33.0011 30.6644 32.8008C30.8647 32.6005 30.9773 32.3288 30.9773 32.0455C30.9773 31.7622 30.8647 31.4905 30.6644 31.2902C30.4641 31.0898 30.1924 30.9773 29.9091 30.9773Z" fill="black"/>
<path d="M56.6136 7.47729H36.3182C35.4691 7.47983 34.6555 7.81827 34.055 8.41869C33.4546 9.01911 33.1162 9.83272 33.1136 10.6818V12.8182C33.1136 13.1015 33.2262 13.3732 33.4265 13.5735C33.6268 13.7738 33.8985 13.8864 34.1818 13.8864H57.6818V16.0227C57.6818 16.306 57.7944 16.5777 57.9947 16.7781C58.195 16.9784 58.4667 17.0909 58.75 17.0909C59.0333 17.0909 59.305 16.9784 59.5053 16.7781C59.7057 16.5777 59.8182 16.306 59.8182 16.0227V10.6818C59.8157 9.83272 59.4772 9.01911 58.8768 8.41869C58.2764 7.81827 57.4628 7.47983 56.6136 7.47729ZM57.6818 11.75H35.25V10.6818C35.25 10.3985 35.3626 10.1268 35.5629 9.92652C35.7632 9.7262 36.0349 9.61366 36.3182 9.61366H56.6136C56.8969 9.61366 57.1686 9.7262 57.369 9.92652C57.5693 10.1268 57.6818 10.3985 57.6818 10.6818V11.75Z" fill="black"/>
<path d="M34.1818 16.0227C33.8985 16.0227 33.6268 16.1352 33.4265 16.3356C33.2262 16.5359 33.1136 16.8076 33.1136 17.0909V43.7954C33.1136 44.6453 33.4513 45.4604 34.0522 46.0614C34.6532 46.6624 35.4683 47 36.3182 47H48.4421C48.7254 47 48.9971 46.8874 49.1974 46.6871C49.3977 46.4868 49.5102 46.2151 49.5102 45.9318C49.5102 45.6485 49.3977 45.3768 49.1974 45.1765C48.9971 44.9762 48.7254 44.8636 48.4421 44.8636H36.3182C36.0349 44.8636 35.7632 44.7511 35.5629 44.5508C35.3626 44.3504 35.25 44.0787 35.25 43.7954V38.4545H48.0682C48.3515 38.4545 48.6232 38.342 48.8235 38.1417C49.0238 37.9413 49.1364 37.6696 49.1364 37.3863C49.1364 37.103 49.0238 36.8313 48.8235 36.631C48.6232 36.4307 48.3515 36.3182 48.0682 36.3182H35.25V17.0909C35.25 16.8076 35.1375 16.5359 34.9371 16.3356C34.7368 16.1352 34.4651 16.0227 34.1818 16.0227Z" fill="black"/>
<path d="M48.0682 40.5909H44.8637C44.5804 40.5909 44.3087 40.7034 44.1083 40.9037C43.908 41.1041 43.7955 41.3758 43.7955 41.6591C43.7955 41.9424 43.908 42.2141 44.1083 42.4144C44.3087 42.6147 44.5804 42.7272 44.8637 42.7272H48.0682C48.3515 42.7272 48.6232 42.6147 48.8235 42.4144C49.0238 42.2141 49.1364 41.9424 49.1364 41.6591C49.1364 41.3758 49.0238 41.1041 48.8235 40.9037C48.6232 40.7034 48.3515 40.5909 48.0682 40.5909Z" fill="black"/>
<path d="M65.1591 19.2273H54.4773C53.6281 19.2298 52.8145 19.5683 52.2141 20.1687C51.6137 20.7691 51.2752 21.5827 51.2727 22.4318V24.5682C51.2727 24.8515 51.3852 25.1232 51.5856 25.3235C51.7859 25.5238 52.0576 25.6364 52.3409 25.6364H66.2273V40.5909H53.4091V28.8409C53.4091 28.5576 53.2965 28.2859 53.0962 28.0856C52.8959 27.8853 52.6242 27.7727 52.3409 27.7727C52.0576 27.7727 51.7859 27.8853 51.5856 28.0856C51.3852 28.2859 51.2727 28.5576 51.2727 28.8409V43.7955C51.2752 44.6446 51.6137 45.4582 52.2141 46.0586C52.8145 46.6591 53.6281 46.9975 54.4773 47H65.1591C66.0082 46.9975 66.8218 46.6591 67.4222 46.0586C68.0226 45.4582 68.3611 44.6446 68.3636 43.7955V22.4318C68.3611 21.5827 68.0226 20.7691 67.4222 20.1687C66.8218 19.5683 66.0082 19.2298 65.1591 19.2273ZM66.2273 43.7955C66.2273 44.0788 66.1147 44.3505 65.9144 44.5508C65.7141 44.7511 65.4424 44.8637 65.1591 44.8637H54.4773C54.194 44.8637 53.9223 44.7511 53.7219 44.5508C53.5216 44.3505 53.4091 44.0788 53.4091 43.7955V42.7273H66.2273V43.7955ZM66.2273 23.5H53.4091V22.4318C53.4091 22.1485 53.5216 21.8768 53.7219 21.6765C53.9223 21.4762 54.194 21.3637 54.4773 21.3637H65.1591C65.4424 21.3637 65.7141 21.4762 65.9144 21.6765C66.1147 21.8768 66.2273 22.1485 66.2273 22.4318V23.5Z" fill="black"/>
</svg>
