<svg width="63" height="54" viewBox="0 0 63 54" fill="none" xmlns="http://www.w3.org/2000/svg">
<path d="M52.7227 2.61292H9.49469C7.77498 2.61292 6.1257 3.20584 4.90968 4.26126C3.69365 5.31667 3.0105 6.74812 3.0105 8.24071V15.1191H59.2069V8.24071C59.2069 6.74812 58.5237 5.31667 57.3077 4.26126C56.0917 3.20584 54.4424 2.61292 52.7227 2.61292ZM15.2584 11.3673H12.3766C11.8033 11.3673 11.2536 11.1696 10.8482 10.8178C10.4429 10.466 10.2152 9.98885 10.2152 9.49133C10.2152 8.9938 10.4429 8.51665 10.8482 8.16484C11.2536 7.81304 11.8033 7.6154 12.3766 7.6154H15.2584C15.8317 7.6154 16.3814 7.81304 16.7868 8.16484C17.1921 8.51665 17.4198 8.9938 17.4198 9.49133C17.4198 9.98885 17.1921 10.466 16.7868 10.8178C16.3814 11.1696 15.8317 11.3673 15.2584 11.3673ZM23.904 11.3673H21.0221C20.4489 11.3673 19.8991 11.1696 19.4938 10.8178C19.0885 10.466 18.8608 9.98885 18.8608 9.49133C18.8608 8.9938 19.0885 8.51665 19.4938 8.16484C19.8991 7.81304 20.4489 7.6154 21.0221 7.6154H23.904C24.4773 7.6154 25.027 7.81304 25.4324 8.16484C25.8377 8.51665 26.0654 8.9938 26.0654 9.49133C26.0654 9.98885 25.8377 10.466 25.4324 10.8178C25.027 11.1696 24.4773 11.3673 23.904 11.3673ZM3.0105 45.7593C3.0105 47.2519 3.69365 48.6834 4.90968 49.7388C6.1257 50.7942 7.77498 51.3871 9.49469 51.3871H52.7227C54.4424 51.3871 56.0917 50.7942 57.3077 49.7388C58.5237 48.6834 59.2069 47.2519 59.2069 45.7593V18.871H3.0105V45.7593ZM33.76 28.2506C33.3778 27.8659 33.1874 27.3651 33.2307 26.8585C33.2739 26.3519 33.5472 25.881 33.9905 25.5493C34.4338 25.2176 35.0108 25.0523 35.5945 25.0899C36.1782 25.1274 36.7208 25.3646 37.103 25.7494L42.6361 31.5773L48.1693 25.7994C48.3585 25.6089 48.5891 25.4526 48.848 25.3394C49.1068 25.2263 49.3888 25.1585 49.6778 25.1399C49.9668 25.1213 50.2572 25.1523 50.5324 25.2312C50.8076 25.31 51.0622 25.4351 51.2817 25.5993C51.5012 25.7636 51.6813 25.9637 51.8117 26.1883C51.9421 26.413 52.0202 26.6577 52.0416 26.9085C52.063 27.1594 52.0273 27.4114 51.9365 27.6503C51.8456 27.8892 51.7015 28.1101 51.5123 28.3007L45.518 34.5037L51.5699 40.8069C51.9316 41.1935 52.104 41.6878 52.0501 42.1836C51.9962 42.6794 51.7203 43.1371 51.2817 43.4582C50.8884 43.7302 50.4014 43.88 49.8984 43.8834C49.58 43.883 49.2655 43.8224 48.9768 43.7058C48.6881 43.5892 48.4322 43.4193 48.227 43.2081L42.6361 37.4302L37.103 43.2081C36.8977 43.4193 36.6417 43.5892 36.3531 43.7058C36.0644 43.8224 35.7499 43.883 35.4315 43.8834C34.9285 43.88 34.4415 43.7302 34.0482 43.4582C33.6096 43.1371 33.3337 42.6794 33.2798 42.1836C33.2259 41.6878 33.3983 41.1935 33.76 40.8069L39.7543 34.5037L33.76 28.2506ZM10.2152 27C10.2152 26.5025 10.4429 26.0253 10.8482 25.6735C11.2536 25.3217 11.8033 25.1241 12.3766 25.1241C12.9498 25.1241 13.4996 25.3217 13.9049 25.6735C14.3102 26.0253 14.538 26.5025 14.538 27V35.7794C14.538 36.9403 15.0693 38.0536 16.0151 38.8745C16.9609 39.6954 18.2437 40.1565 19.5812 40.1565C20.9188 40.1565 22.2015 39.6954 23.1473 38.8745C24.0931 38.0536 24.6245 36.9403 24.6245 35.7794V27C24.6245 26.5025 24.8522 26.0253 25.2575 25.6735C25.6629 25.3217 26.2126 25.1241 26.7859 25.1241C27.3591 25.1241 27.9089 25.3217 28.3142 25.6735C28.7196 26.0253 28.9473 26.5025 28.9473 27V35.7794C28.9473 37.9353 27.9605 40.003 26.204 41.5275C24.4475 43.052 22.0653 43.9084 19.5812 43.9084C17.0972 43.9084 14.7149 43.052 12.9584 41.5275C11.2019 40.003 10.2152 37.9353 10.2152 35.7794V27Z" fill="white"/>
</svg>
